<?xml version="1.0" standalone="no"?>
<!DOCTYPE svg PUBLIC "-//W3C//DTD SVG 20010904//EN"
 "http://www.w3.org/TR/2001/REC-SVG-20010904/DTD/svg10.dtd">
<svg version="1.0" xmlns="http://www.w3.org/2000/svg"
 width="225.000000pt" height="225.000000pt" viewBox="0 0 225.000000 225.000000"
 preserveAspectRatio="xMidYMid meet">

<g transform="translate(0.000000,225.000000) scale(0.100000,-0.100000)"
fill="#000000" stroke="none">
<path d="M1312 2228 c-8 -8 -12 -56 -12 -150 0 -100 -3 -138 -12 -138 -6 0
-31 -9 -55 -21 -133 -64 -120 -264 20 -309 l47 -15 0 -137 c0 -111 3 -140 16
-152 13 -13 44 -16 178 -16 186 0 196 4 196 77 0 34 6 46 31 67 40 34 74 33
110 -3 22 -23 29 -39 29 -69 0 -67 13 -72 198 -72 133 0 163 3 176 16 14 14
16 69 16 463 0 334 -3 450 -12 459 -17 17 -909 17 -926 0z m856 -461 l2 -388
-111 3 -111 3 -14 40 c-35 103 -163 143 -257 81 -18 -12 -43 -43 -57 -73 l-25
-53 -105 0 -105 0 0 140 c0 153 -2 160 -58 160 -41 0 -67 17 -83 55 -23 56 14
115 73 115 20 0 41 8 53 20 18 18 20 33 20 155 l0 135 388 -2 387 -3 3 -388z"/>
<path d="M42 1804 l-22 -15 0 -865 c0 -577 3 -872 10 -885 10 -19 31 -19 899
-19 801 0 889 2 895 16 3 9 6 75 6 149 l0 133 32 6 c72 14 128 87 128 166 0
79 -56 152 -128 166 l-32 7 0 132 c0 74 -3 140 -6 149 -5 14 -28 16 -148 16
l-141 0 -18 50 c-24 68 -70 103 -146 108 -87 6 -148 -34 -176 -115 l-13 -38
-104 0 -103 0 -3 129 c-1 75 -7 135 -14 143 -6 7 -24 13 -40 13 -92 0 -140 90
-79 151 22 22 39 29 68 29 22 0 44 5 51 12 8 8 12 64 12 185 0 160 -1 173 -19
183 -13 6 -173 10 -453 10 -376 0 -436 -2 -456 -16z m846 -180 l-3 -106 -40
-14 c-50 -17 -101 -70 -114 -121 -24 -89 37 -192 124 -209 l35 -6 0 -99 0 -99
-135 0 c-122 0 -137 -2 -155 -20 -12 -12 -20 -33 -20 -55 0 -61 -61 -100 -116
-73 -34 16 -54 51 -54 95 0 22 -6 36 -19 43 -11 5 -78 10 -150 10 l-131 0 0
380 0 380 390 0 391 0 -3 -106z m530 -607 c16 -15 22 -32 22 -63 0 -69 10 -74
170 -74 l139 0 3 -147 3 -148 55 -7 c63 -7 100 -40 100 -88 0 -48 -37 -81
-100 -88 l-55 -7 -3 -147 -3 -148 -389 0 -390 0 0 109 0 109 35 6 c40 8 90 46
110 87 19 36 19 122 0 158 -20 41 -70 79 -110 87 l-35 6 0 109 0 109 138 0
c94 0 142 4 150 12 7 7 12 29 12 51 0 50 15 76 52 92 37 15 65 10 96 -18z
m-1088 -157 c0 -60 73 -129 144 -137 85 -10 164 41 188 119 l11 38 109 0 108
0 0 -137 c0 -76 4 -143 8 -149 4 -6 29 -14 57 -17 124 -13 128 -158 5 -174
-25 -3 -51 -10 -57 -16 -9 -7 -13 -49 -13 -148 l0 -139 -390 0 -390 0 0 390 0
390 110 0 c104 0 110 -1 110 -20z"/>
</g>
</svg>
